<?xml version="1.0" encoding="utf-8"?>
<!-- Generator: Adobe Illustrator 19.1.0, SVG Export Plug-In . SVG Version: 6.00 Build 0)  -->
<svg version="1.1" id="Camada_1" xmlns="http://www.w3.org/2000/svg" xmlns:xlink="http://www.w3.org/1999/xlink" x="0px" y="0px"
	 viewBox="-376.7 414.3 58.7 46.3" style="enable-background:new -376.7 414.3 58.7 46.3;" xml:space="preserve">
<style type="text/css">
	.st0{fill:#FFFFFF;}
</style>
<title>audio-collection</title>
<path class="st0" d="M-361.4,428.5h-9.5c-1.7,0-3,1.3-3,3v13c0,1.7,1.3,3,3,3h9.5l16.9,10.6c1.4,0.9,3.3,0.5,4.1-0.9
	c0.3-0.5,0.5-1,0.5-1.6v-35.2c0-1.7-1.3-3-3-3c-0.6,0-1.1,0.2-1.6,0.5L-361.4,428.5z"/>
<path class="st0" d="M-326.2,438l6-6c0.6-0.6,0.5-1.6-0.1-2.1s-1.5-0.5-2,0l-6,6l-6-6c-0.6-0.6-1.5-0.6-2.1,0
	c-0.6,0.6-0.6,1.5,0,2.1l6,6l-6,6c-0.6,0.6-0.6,1.5-0.1,2.1c0.6,0.6,1.5,0.6,2.1,0.1c0,0,0.1,0,0.1-0.1l6-6l6,6
	c0.6,0.6,1.5,0.6,2.1,0s0.6-1.5,0-2.1L-326.2,438z"/>
</svg>
