<?xml version="1.0" encoding="utf-8"?>
<!-- Generator: Adobe Illustrator 19.1.0, SVG Export Plug-In . SVG Version: 6.00 Build 0)  -->
<svg version="1.1" id="Camada_1" xmlns="http://www.w3.org/2000/svg" xmlns:xlink="http://www.w3.org/1999/xlink" x="0px" y="0px"
	 viewBox="-375.8 415.8 59.2 44.8" style="enable-background:new -375.8 415.8 59.2 44.8;" xml:space="preserve">
<style type="text/css">
	.st0{fill:#FFFFFF;}
</style>
<title>audio-collection</title>
<path class="st0" d="M-326.1,454.7c-0.8,0-1.5-0.7-1.5-1.5c0-0.4,0.2-0.8,0.4-1.1c7.8-7.8,7.8-20.5,0-28.3c-0.6-0.6-0.6-1.5,0-2.1
	c0.6-0.6,1.5-0.6,2.1,0c9,9,9,23.5,0,32.5C-325.3,454.5-325.7,454.7-326.1,454.7z"/>
<path class="st0" d="M-330.7,450.5c-0.8,0-1.5-0.7-1.5-1.5c0-0.4,0.2-0.8,0.4-1.1c5.5-5.5,5.5-14.3,0-19.8l0,0
	c-0.5-0.6-0.4-1.6,0.2-2.1c0.6-0.4,1.3-0.4,1.9,0c6.6,6.6,6.6,17.4,0,24C-329.9,450.3-330.3,450.5-330.7,450.5z"/>
<path class="st0" d="M-335.4,446.6c-0.8,0-1.5-0.7-1.5-1.5c0-0.4,0.2-0.8,0.4-1.1c3.3-3.3,3.3-8.7,0-12c-0.6-0.6-0.5-1.6,0.1-2.1
	s1.5-0.5,2,0c4.5,4.5,4.5,11.8,0,16.2l0,0C-334.6,446.4-335,446.6-335.4,446.6z"/>
<path class="st0" d="M-361.4,428.5h-9.5c-1.7,0-3,1.3-3,3v13c0,1.7,1.3,3,3,3h9.5l16.9,10.6c1.4,0.9,3.3,0.5,4.1-0.9
	c0.3-0.5,0.5-1,0.5-1.6v-35.2c0-1.7-1.3-3-3-3c-0.6,0-1.1,0.2-1.6,0.5L-361.4,428.5z"/>
</svg>
